<svg width="268" height="36" viewBox="0 0 268 36" fill="none" xmlns="http://www.w3.org/2000/svg">
<path d="M18.014 0C15.2759 0 12.6819 0.648 10.3761 1.728H25.724C23.3462 0.648 20.7522 0 18.014 0ZM12.2495 3.456H7.42178C6.70122 3.96 6.05272 4.536 5.40421 5.184H9.79964C10.5202 4.536 11.3849 3.96 12.2495 3.456ZM21.4007 8.568H33.2899C32.9297 7.992 32.4973 7.416 32.065 6.84H21.4007V8.568ZM8.14235 6.84H3.81898C3.38664 7.416 2.9543 7.992 2.59402 8.568H6.91739C7.34973 7.992 7.71001 7.416 8.14235 6.84ZM21.4007 5.184H30.5518C29.9033 4.536 29.2548 3.96 28.5342 3.456H21.4007V5.184ZM35.956 18C35.956 17.712 35.956 17.424 35.956 17.136H29.7592C29.543 16.56 29.2548 15.984 28.8945 15.408H35.7399C35.6678 14.832 35.5237 14.256 35.3796 13.68H27.7416C27.2372 13.032 26.6608 12.528 26.0843 11.952H34.9472C34.7311 11.376 34.5149 10.8 34.2267 10.224H14.4833V18.792H21.4007V27.36H2.66608C3.02636 27.936 3.4587 28.512 3.89103 29.088H14.5553V30.816H5.40421C6.05272 31.464 6.70122 32.04 7.42178 32.544H14.4833V34.272H10.304C12.6098 35.352 15.2039 36 18.014 36C20.7522 36 23.3462 35.424 25.652 34.272H23.7065C24.5712 33.768 25.3638 33.192 26.0843 32.544H28.5342C29.2548 32.04 29.9033 31.464 30.5518 30.816H27.7416C28.174 30.312 28.5342 29.736 28.8945 29.088H32.065C32.4973 28.512 32.9297 28.008 33.2899 27.36H29.7592C29.9754 26.784 30.1915 26.208 30.3356 25.632H34.2267C34.5149 25.056 34.7311 24.48 34.9472 23.904H30.6239C30.6959 23.328 30.6959 22.752 30.6959 22.176H35.3796C35.5237 21.6 35.5957 21.024 35.7399 20.448H30.6239C30.5518 19.872 30.4077 19.296 30.2636 18.72H35.884C35.956 18.576 35.956 18.288 35.956 18ZM8.14235 23.976H1.00879C1.22495 24.552 1.44112 25.128 1.72935 25.704H9.79964C9.22319 25.2 8.64674 24.624 8.14235 23.976ZM6.19683 20.592H0.216169C0.288225 21.168 0.432337 21.744 0.576449 22.32H7.0615C6.70122 21.744 6.413 21.168 6.19683 20.592ZM5.18804 15.408C5.18804 14.832 5.2601 14.256 5.2601 13.68H0.504393C0.360281 14.256 0.288225 14.832 0.144112 15.408H5.18804ZM6.19683 10.296H1.72935C1.44112 10.872 1.22495 11.448 1.00879 12.024H5.62038C5.76449 11.448 5.90861 10.872 6.19683 10.296ZM5.2601 17.136H0C0 17.424 0 17.712 0 18C0 18.288 0 18.576 0 18.864H5.54832C5.47627 18.288 5.33216 17.712 5.2601 17.136Z" fill="#0065AC"/>
<path d="M49.8629 29.16C49.5026 29.376 48.9261 29.592 47.8453 29.592C46.1159 29.592 44.963 28.224 44.963 26.64C44.963 25.056 46.1159 23.688 47.8453 23.688C48.9982 23.688 49.5026 23.976 49.7908 24.12L49.5026 24.768C49.2864 24.696 48.8541 24.408 47.9173 24.408C46.9086 24.408 45.9718 25.344 45.9718 26.64C45.9718 27.864 46.9086 28.8 47.9894 28.8C48.8541 28.8 49.2864 28.584 49.5746 28.44L49.8629 29.16ZM53.0333 29.52V27.072C53.0333 26.712 52.8892 26.424 52.4569 26.424C52.0246 26.424 51.6643 26.712 51.5202 26.784V29.52H50.5834V24.12L51.5202 23.904V26.208C51.6643 26.064 52.0966 25.704 52.8892 25.704C53.6098 25.704 53.9701 26.208 53.9701 26.856V29.52H53.0333ZM70.3268 29.52V27.072C70.3268 26.712 70.1827 26.424 69.7504 26.424C69.318 26.424 68.9577 26.712 68.8136 26.784V29.52H67.8769V24.12L68.8136 23.904V26.208C68.9577 26.064 69.3901 25.704 70.1827 25.704C70.9033 25.704 71.2635 26.208 71.2635 26.856V29.52H70.3268ZM61.6801 29.52V27.072C61.6801 26.712 61.536 26.424 61.1036 26.424C60.6713 26.424 60.311 26.712 60.1669 26.784V29.52H59.2302V25.992L60.0948 25.776V26.136C60.239 25.992 60.6713 25.632 61.4639 25.632C62.1845 25.632 62.6168 26.064 62.6168 26.784V29.52H61.6801ZM64.7064 28.152C64.4903 28.152 64.0579 28.224 64.0579 28.512C64.0579 28.872 64.4182 28.872 64.7064 28.872H65.7873C66.5799 28.872 67.2284 29.376 67.0843 30.168C67.0122 31.032 66.0034 31.608 65.1388 31.608C64.202 31.608 63.1212 31.392 63.1212 30.528C63.1212 29.952 63.5535 29.664 63.7697 29.52C63.6256 29.448 63.2653 29.232 63.2653 28.728C63.2653 28.296 63.6256 27.864 63.9138 27.792C63.6976 27.648 63.4815 27.432 63.4815 26.928C63.4815 26.352 63.9138 25.704 64.9226 25.704C65.3549 25.704 65.4991 25.776 65.6432 25.776H67.0843V26.28H66.2917C66.3637 26.352 66.5799 26.568 66.5799 26.928C66.5799 27.72 65.8593 28.152 65.0667 28.152H64.7064ZM63.9138 30.456C63.9138 30.888 64.5623 31.032 65.1388 31.032C65.7152 31.032 66.2917 30.672 66.3637 30.312C66.4358 29.88 66.1476 29.664 65.7873 29.664H64.5623C64.2741 29.736 63.9138 30.024 63.9138 30.456ZM64.3462 26.928C64.3462 27.288 64.5623 27.576 65.0667 27.576C65.4991 27.576 65.7152 27.288 65.7152 26.928C65.7152 26.64 65.4991 26.28 65.0667 26.28C64.6344 26.28 64.3462 26.64 64.3462 26.928ZM73.7135 25.776H74.5781L75.3707 28.224L76.2354 25.776H77.028L75.5869 29.592H75.0825L74.434 27.648L73.7135 29.592H73.2091L71.84 25.776H72.7047L73.5693 28.296L74.1458 26.856L73.7135 25.776ZM78.3971 29.664C77.6765 29.664 77.2442 29.232 77.2442 28.656C77.2442 28.008 77.7486 27.432 78.6853 27.432L79.478 27.36V27.072C79.478 26.712 79.3338 26.424 78.7574 26.424C78.253 26.424 77.8927 26.568 77.6766 26.64L77.4604 26.136C77.6765 25.992 78.253 25.776 78.9736 25.776C79.8382 25.776 80.2706 26.208 80.2706 26.856V29.016C80.2706 29.232 80.3426 29.52 80.4147 29.592H79.478C79.4059 29.52 79.4059 29.304 79.4059 29.232C79.3338 29.376 78.9736 29.664 78.3971 29.664ZM79.478 27.792L78.9736 27.864C78.4692 27.936 78.1089 28.08 78.1089 28.512C78.1089 28.872 78.3971 29.016 78.7574 29.016C79.1177 29.016 79.3338 28.8 79.55 28.656V27.792H79.478ZM55.8435 25.776V28.224C55.8435 28.584 55.9876 28.872 56.42 28.872C56.8523 28.872 57.1405 28.656 57.3567 28.512V25.776H58.2934V29.304L57.3567 29.52V29.16C57.2126 29.304 56.7803 29.664 56.0597 29.664C55.3391 29.664 54.9789 29.232 54.9789 28.512V25.848H55.8435V25.776ZM81.7117 23.904H86.3233V24.624H84.5219V29.52H83.5131V24.552H81.7117V23.904ZM87.6203 29.016C88.1967 29.016 88.485 28.872 88.6291 28.8L88.8453 29.304C88.6291 29.376 88.2688 29.592 87.3321 29.592C86.1792 29.592 85.4586 28.872 85.4586 27.648C85.4586 26.496 86.2512 25.632 87.26 25.632C88.1967 25.632 88.9894 26.28 88.9894 27.648H86.3953C86.3953 28.512 86.8277 29.016 87.6203 29.016ZM87.188 26.352C86.6836 26.352 86.4674 26.712 86.3953 27.216H87.9806C87.9806 26.64 87.6923 26.352 87.188 26.352ZM89.7099 24.12L90.6467 23.904V29.52H89.7099V24.12ZM93.601 29.016C94.1774 29.016 94.4656 28.872 94.6097 28.8L94.8259 29.304C94.6097 29.376 94.2495 29.592 93.3127 29.592C92.1598 29.592 91.4393 28.872 91.4393 27.648C91.4393 26.496 92.2319 25.632 93.2407 25.632C94.1774 25.632 94.97 26.28 94.97 27.648H92.376C92.376 28.512 92.8083 29.016 93.601 29.016ZM93.2407 26.352C92.7363 26.352 92.5201 26.712 92.4481 27.216H94.0333C93.9612 26.64 93.673 26.352 93.2407 26.352ZM97.492 25.704C98.2125 25.704 98.5728 25.848 98.789 25.92L98.5728 26.496C98.3567 26.424 98.1405 26.352 97.6361 26.352C97.1317 26.352 96.4832 26.784 96.4832 27.72C96.4832 28.584 97.1317 29.088 97.6361 29.088C98.1405 29.088 98.4287 29.016 98.6449 28.944L98.8611 29.52C98.6449 29.592 98.2846 29.736 97.564 29.736C96.3391 29.736 95.5465 28.944 95.5465 27.792C95.5465 26.496 96.4832 25.704 97.492 25.704ZM103.184 27.648C103.184 28.872 102.32 29.592 101.167 29.592C100.014 29.592 99.1493 28.8 99.1493 27.648C99.1493 26.424 100.014 25.704 101.167 25.704C102.32 25.704 103.184 26.496 103.184 27.648ZM100.086 27.648C100.086 28.44 100.518 29.016 101.167 29.016C101.743 29.016 102.248 28.44 102.248 27.648C102.248 26.856 101.815 26.28 101.167 26.28C100.446 26.352 100.086 26.856 100.086 27.648ZM109.381 29.52H108.445V27.072C108.445 26.712 108.3 26.424 107.868 26.424C107.508 26.424 107.22 26.64 107.075 26.784V29.52H106.139V27.072C106.139 26.712 105.995 26.424 105.562 26.424C105.274 26.424 104.914 26.64 104.77 26.784V29.52H103.833V25.992L104.698 25.776V26.208C104.914 26.064 105.274 25.704 105.85 25.704C106.355 25.704 106.643 25.848 106.787 26.208C107.003 25.992 107.436 25.704 108.084 25.704C108.805 25.704 109.237 26.208 109.237 26.856V29.52H109.381Z" fill="black"/>
<path d="M99.0052 6.768C99.2213 6.84 99.3654 6.912 99.4375 7.056C99.5096 7.2 99.5816 7.416 99.5096 7.632C99.2934 8.784 99.0052 9.72 98.7169 10.512V19.512C98.7169 19.728 98.6449 19.872 98.5008 20.016C98.3567 20.16 98.2125 20.232 97.9964 20.232C97.7802 20.232 97.6361 20.16 97.492 20.016C97.3479 19.872 97.2758 19.728 97.2758 19.512C97.2758 19.512 97.2758 13.32 97.2758 13.032C96.9155 13.536 96.7714 13.536 96.5553 13.608C96.4111 13.608 96.195 13.608 96.1229 13.464C95.9788 13.32 95.9068 13.176 95.9068 13.032C95.9068 12.888 95.9788 12.672 96.1229 12.528C97.2038 10.944 97.8523 9.288 98.1405 7.488C98.1405 7.272 98.2846 7.056 98.4287 6.984C98.5728 6.84 98.789 6.768 99.0052 6.768ZM101.095 15.264H108.445C108.733 15.264 109.021 15.336 109.165 15.552C109.381 15.768 109.453 15.912 109.453 16.128V18.936C109.453 19.224 109.309 19.44 109.093 19.656C108.877 19.872 108.661 19.944 108.445 19.944H101.095C100.807 19.944 100.662 19.872 100.446 19.656C100.23 19.44 100.23 19.224 100.23 18.936V16.128C100.23 15.912 100.302 15.696 100.446 15.552C100.662 15.408 100.879 15.264 101.095 15.264ZM101.959 16.56C101.743 16.56 101.671 16.632 101.671 16.632C101.599 16.704 101.599 16.776 101.599 16.92V18.288C101.599 18.432 101.671 18.504 101.671 18.576C101.743 18.648 101.815 18.72 101.959 18.72H107.724C107.868 18.72 108.012 18.648 108.084 18.648C108.156 18.576 108.156 18.504 108.156 18.36V16.992C108.156 16.848 108.156 16.776 108.084 16.704C108.012 16.632 107.94 16.56 107.724 16.56H101.959ZM101.023 13.176C100.807 13.176 100.662 13.248 100.518 13.392C100.374 13.536 100.374 13.68 100.374 13.824C100.374 13.968 100.446 14.184 100.518 14.256C100.662 14.4 100.807 14.472 101.023 14.472H108.661C108.877 14.472 109.021 14.4 109.093 14.256C109.237 14.112 109.237 13.968 109.237 13.824C109.237 13.68 109.165 13.464 109.093 13.392C109.021 13.32 108.877 13.248 108.661 13.248H101.023V13.176ZM101.023 11.16C100.807 11.16 100.662 11.232 100.518 11.376C100.374 11.52 100.374 11.664 100.374 11.808C100.374 11.952 100.446 12.168 100.518 12.24C100.662 12.384 100.807 12.456 101.023 12.456H108.661C108.877 12.456 109.021 12.384 109.093 12.24C109.237 12.096 109.237 11.952 109.237 11.808C109.237 11.664 109.165 11.52 109.093 11.376C109.021 11.232 108.805 11.16 108.661 11.16H101.023ZM100.158 9.144C99.9419 9.144 99.7978 9.216 99.6537 9.36C99.5816 9.504 99.5096 9.648 99.5096 9.792C99.5096 9.936 99.5816 10.152 99.6537 10.224C99.7978 10.368 99.8698 10.368 100.158 10.368H109.669C109.886 10.368 110.03 10.296 110.102 10.224C110.246 10.08 110.246 9.936 110.246 9.792C110.246 9.648 110.174 9.432 110.102 9.36C110.03 9.288 109.886 9.144 109.669 9.144H100.158ZM101.023 7.128C100.807 7.128 100.662 7.2 100.518 7.272C100.374 7.416 100.374 7.488 100.374 7.704C100.374 7.92 100.446 8.064 100.518 8.136C100.59 8.208 100.807 8.28 101.023 8.28H108.661C108.877 8.28 109.021 8.208 109.093 8.136C109.237 7.992 109.237 7.92 109.237 7.704C109.237 7.488 109.165 7.344 109.093 7.272C109.021 7.2 108.877 7.128 108.661 7.128H101.023Z" fill="black"/>
<path d="M76.0913 8.136C76.0913 8.28 76.0193 8.424 75.9472 8.568C75.8031 8.712 75.659 8.784 75.5149 8.784H72.4885V8.856C72.4885 9.072 72.4164 9.216 72.2723 9.36C72.1282 9.504 71.9841 9.576 71.7679 9.576C71.5518 9.576 71.4077 9.504 71.2635 9.36C71.1194 9.216 71.0474 9.072 71.0474 8.856V8.784H67.3005V8.856C67.3005 9.072 67.2284 9.216 67.0843 9.36C66.9402 9.504 66.7961 9.576 66.5799 9.576C66.3637 9.576 66.2196 9.504 66.0755 9.36C65.9314 9.216 65.8593 9.072 65.8593 8.856V8.784H62.833C62.6168 8.784 62.4727 8.712 62.4006 8.64C62.2565 8.496 62.2565 8.352 62.2565 8.208C62.2565 8.064 62.3286 7.848 62.4006 7.776C62.4727 7.704 62.6168 7.632 62.833 7.632H65.8593V7.344C65.8593 7.128 65.9314 6.984 66.0755 6.84C66.2196 6.696 66.3637 6.624 66.5799 6.624C66.7961 6.624 66.9402 6.696 67.0843 6.84C67.2284 6.984 67.3005 7.128 67.3005 7.344V7.632H71.0474V7.344C71.0474 7.128 71.1194 6.984 71.2635 6.84C71.4077 6.696 71.5518 6.624 71.7679 6.624C71.9841 6.624 72.1282 6.696 72.2723 6.84C72.4164 6.984 72.4885 7.128 72.4885 7.344V7.632H75.5149C75.731 7.632 75.8751 7.704 75.9472 7.776C76.0193 7.848 76.0913 7.992 76.0913 8.136ZM66.5799 13.536V14.76H68.6695V13.536H66.5799ZM69.9665 11.016V12.312H72.0562V11.016H69.9665ZM71.9841 13.68V13.464H69.8945V14.688H75.0825C75.2987 14.688 75.3707 14.76 75.5149 14.832C75.659 14.976 75.659 15.192 75.659 15.264C75.659 15.408 75.5869 15.552 75.5149 15.696C75.3707 15.84 75.2987 15.912 75.0825 15.912H69.8945V16.92H75.4428C75.659 16.92 75.8031 16.992 75.8751 17.064C76.0193 17.208 76.0193 17.352 76.0193 17.496C76.0193 17.64 75.9472 17.856 75.8751 17.928C75.8031 18.072 75.659 18.072 75.4428 18.072H69.8945V19.368C69.8945 19.584 69.8224 19.728 69.6783 19.872C69.5342 20.016 69.3901 20.088 69.1739 20.088C68.9578 20.088 68.8136 20.016 68.6695 19.872C68.5254 19.728 68.4534 19.584 68.4534 19.368V18.072H62.905C62.6889 18.072 62.5447 18 62.4727 17.928C62.3286 17.784 62.3286 17.568 62.3286 17.496C62.3286 17.352 62.4006 17.208 62.4727 17.064C62.5447 16.992 62.6889 16.92 62.905 16.92H68.4534V15.912H63.4094C63.1933 15.912 63.0491 15.84 62.9771 15.768C62.833 15.696 62.833 15.48 62.833 15.336C62.833 15.192 62.905 15.048 62.9771 14.904C63.0491 14.832 63.2653 14.76 63.4094 14.76H65.2108V13.536H62.6889C62.4727 13.536 62.3286 13.464 62.2565 13.392C62.1124 13.248 62.1124 13.104 62.1124 12.96C62.1124 12.816 62.1845 12.672 62.2565 12.528C62.3286 12.384 62.5448 12.384 62.6889 12.384H65.2829V12.24C65.2829 12.024 65.3549 11.88 65.427 11.736C65.5711 11.592 65.7152 11.52 65.9314 11.52C66.1476 11.52 66.2917 11.592 66.4358 11.736C66.5799 11.88 66.652 12.024 66.652 12.24V12.384H68.7416V11.088H63.4094C63.1933 11.088 63.0491 11.016 62.9771 10.944C62.833 10.8 62.833 10.584 62.833 10.512C62.833 10.44 62.905 10.152 62.9771 10.08C63.0491 10.008 63.2653 9.936 63.4094 9.936H75.0825C75.2987 9.936 75.4428 10.008 75.5149 10.08C75.659 10.224 75.659 10.368 75.659 10.512C75.659 10.656 75.5869 10.8 75.5149 10.944C75.4428 11.088 75.2987 11.16 75.0825 11.16H73.2811V12.456H75.8751C76.0913 12.456 76.1634 12.528 76.3075 12.6C76.4516 12.744 76.4516 12.888 76.4516 13.032C76.4516 13.176 76.3795 13.32 76.3075 13.464C76.1634 13.608 76.0913 13.68 75.8751 13.68H73.2811V13.896C73.2811 14.112 73.2091 14.256 73.065 14.4C72.9208 14.544 72.7767 14.616 72.5606 14.616C72.3444 14.616 72.2003 14.544 72.0562 14.4C72.0562 14.04 71.9841 13.896 71.9841 13.68Z" fill="black"/>
<path d="M51.2319 6.768C51.0878 6.912 51.0158 7.056 51.0158 7.272V8.28H46.188C45.8277 8.28 45.5395 8.424 45.2513 8.64C45.0351 8.928 44.891 9.216 44.891 9.504C44.891 9.504 44.891 16.416 44.891 16.488C44.891 16.848 45.0351 17.136 45.2513 17.352C45.5395 17.568 45.8277 17.712 46.188 17.712H51.0158V19.44C51.0158 19.728 51.0878 19.944 51.2319 20.016C51.304 20.088 51.5202 20.232 51.7363 20.232C51.9525 20.232 52.1687 20.16 52.2407 20.016C52.3128 19.944 52.4569 19.728 52.4569 19.44V17.784H57.2847C57.6449 17.784 58.0052 17.568 58.2214 17.424C58.4376 17.208 58.5817 16.848 58.5817 16.56V9.648C58.5817 9.288 58.4376 9 58.2214 8.784C58.0052 8.496 57.6449 8.424 57.2847 8.424H52.4569V7.416C52.4569 7.2 52.3848 6.984 52.2407 6.912C52.0966 6.768 51.8804 6.696 51.7363 6.696C51.5922 6.552 51.376 6.624 51.2319 6.768ZM46.4762 16.272C46.4042 16.2 46.3321 16.128 46.3321 15.984V10.08C46.3321 9.936 46.4042 9.864 46.4762 9.792C46.5483 9.72 46.6924 9.648 46.7644 9.648H51.0878V16.344H46.7644C46.6203 16.344 46.5483 16.344 46.4762 16.272ZM56.7803 9.648C56.9244 9.648 56.9964 9.72 57.1405 9.792C57.2126 9.864 57.2847 9.936 57.2847 10.08V15.912C57.2847 16.056 57.2126 16.128 57.1405 16.2C57.0685 16.272 56.9964 16.344 56.8523 16.344H52.5289V9.648H56.7803Z" fill="black"/>
<path d="M83.9454 10.512C84.0895 10.512 84.1616 10.584 84.3057 10.656C84.3778 10.728 84.4498 10.872 84.4498 11.016C84.4498 11.16 84.3778 11.232 84.3057 11.376C84.2337 11.448 84.0895 11.52 83.9454 11.52H81.6396C81.4955 11.52 81.3514 11.448 81.2794 11.376C81.2073 11.304 81.1352 11.16 81.1352 11.016C81.1352 10.872 81.2073 10.8 81.2794 10.656C81.3514 10.584 81.4955 10.512 81.6396 10.512H83.9454ZM84.8101 11.952C84.9542 11.952 85.0263 12.024 85.1704 12.096C85.2424 12.168 85.3145 12.312 85.3145 12.456C85.3145 12.6 85.2424 12.672 85.1704 12.816C85.0983 12.888 84.9542 12.96 84.8101 12.96H82.5043C82.3602 12.96 82.2161 12.888 82.144 12.816C82.072 12.744 81.9999 12.6 81.9999 12.456C81.9999 12.312 82.072 12.24 82.144 12.096C82.2161 12.024 82.3602 11.952 82.5043 11.952H84.8101ZM90.2864 10.512C90.4305 10.512 90.5025 10.584 90.6467 10.656C90.7187 10.728 90.7908 10.872 90.7908 11.016C90.7908 11.16 90.7187 11.232 90.6467 11.376C90.5746 11.448 90.4305 11.52 90.2864 11.52H87.9806C87.8365 11.52 87.6924 11.448 87.6203 11.376C87.5482 11.304 87.4762 11.16 87.4762 11.016C87.4762 10.872 87.5482 10.8 87.6203 10.656C87.6924 10.584 87.8365 10.512 87.9806 10.512H90.2864ZM91.079 11.952C91.2231 11.952 91.2952 12.024 91.4393 12.096C91.5113 12.168 91.5834 12.312 91.5834 12.456C91.5834 12.6 91.5113 12.672 91.4393 12.816C91.3672 12.888 91.2231 12.96 91.079 12.96H88.7732C88.6291 12.96 88.485 12.888 88.4129 12.816C88.3409 12.744 88.2688 12.6 88.2688 12.456C88.2688 12.312 88.3409 12.24 88.4129 12.096C88.485 12.024 88.6291 11.952 88.7732 11.952H91.079ZM81.7117 14.76C81.7117 14.688 81.7117 14.616 81.7837 14.544C81.8558 14.472 81.9279 14.472 82.072 14.472H85.7468V15.264H81.7837C81.7117 15.192 81.7117 14.76 81.7117 14.76ZM85.6748 16.272V17.064H81.9999C81.8558 17.064 81.7837 17.064 81.7117 16.992C81.6396 16.92 81.6396 16.848 81.6396 16.776V16.344H85.6748V16.272ZM90.6467 14.472C90.7908 14.472 90.8628 14.544 90.9349 14.616C91.0069 14.688 91.0069 14.76 91.0069 14.832V15.264H87.0439V14.472H90.6467ZM91.0069 16.272C91.0069 16.272 91.0069 16.632 91.0069 16.704C91.0069 16.848 91.0069 16.92 90.9349 16.92C90.8628 16.992 90.7908 16.992 90.6467 16.992H87.0439V16.2H91.0069V16.272ZM92.2319 18.864C92.2319 18.864 87.9806 18.864 87.6203 18.864C87.4762 18.864 87.26 18.864 87.1159 18.72C86.9718 18.576 87.0439 18.36 87.0439 18.072C87.1159 18.072 91.3672 18.072 91.3672 18.072C91.5834 18.072 91.7996 18 91.9437 17.784C92.1598 17.568 92.2319 17.424 92.2319 17.136V14.112C92.2319 13.896 92.1598 13.68 92.0157 13.536C91.7995 13.392 91.5834 13.32 91.3672 13.32H81.2073C80.9911 13.32 80.775 13.392 80.6308 13.536C80.4867 13.68 80.4147 13.896 80.4147 14.112V17.136C80.4147 17.352 80.4867 17.568 80.6308 17.784C80.775 17.928 80.9191 18 81.1352 18.072H85.6027C85.6027 18.072 85.6027 18.504 85.6027 18.576C85.6027 19.08 85.8909 19.512 86.1071 19.728C86.3953 19.944 86.7556 20.016 87.0439 20.016C87.4762 20.016 92.0878 20.016 92.0878 20.016C92.376 20.016 92.6642 19.8 92.6642 19.44C92.8083 19.152 92.5201 18.864 92.2319 18.864ZM91.8716 10.008C91.9437 10.008 92.0157 10.08 92.0878 10.08C92.1598 10.152 92.1598 10.224 92.1598 10.296V12.24C92.1598 12.456 92.2319 12.672 92.376 12.744C92.5201 12.888 92.6642 12.888 92.8083 12.888C92.9525 12.888 93.1686 12.816 93.2407 12.672C93.3127 12.6 93.4568 12.384 93.4568 12.168V9.864C93.4568 9.576 93.3848 9.288 93.1686 9.144C92.9525 8.928 92.7363 8.856 92.4481 8.856H87.0439V8.208H91.6554C91.7995 8.208 91.9437 8.136 92.0157 8.064C92.0878 7.992 92.1598 7.776 92.1598 7.704C92.1598 7.56 92.0878 7.416 92.0157 7.272C91.9437 7.2 91.7995 7.128 91.6554 7.128H81.2073C81.0632 7.128 80.9191 7.2 80.775 7.272C80.6308 7.344 80.6308 7.488 80.6308 7.632C80.6308 7.776 80.7029 7.92 80.775 8.064C80.847 8.136 80.9911 8.208 81.2073 8.208H85.8189V8.856H80.4147C80.1264 8.856 79.9103 9 79.6941 9.144C79.4779 9.36 79.4059 9.576 79.4059 9.864V12.24C79.4059 12.456 79.478 12.672 79.6221 12.744C79.6941 12.816 79.9103 12.96 80.0544 12.96C80.1985 12.96 80.4147 12.888 80.4867 12.816C80.6308 12.744 80.7029 12.528 80.7029 12.312V10.368C80.7029 10.296 80.7029 10.224 80.775 10.152C80.847 10.08 80.9191 10.08 80.9911 10.08H85.8189V12.456C85.8189 12.672 85.8909 12.888 86.0351 12.96C86.1792 13.104 86.3233 13.104 86.4674 13.104C86.6115 13.104 86.8277 13.032 86.8997 12.96C86.9718 12.816 87.1159 12.672 87.1159 12.456V10.08H91.8716V10.008Z" fill="black"/>
<path d="M119.833 30H118.634V5.99999H119.833V30Z" fill="#495057"/>
<path d="M267.441 10.5375H264.76L264.545 10.4277C264.409 10.3581 264.3 10.2483 264.234 10.1164L264.011 9.90041V6.55381C264.011 6.24258 263.759 5.9936 263.451 5.9936H262.417C262.106 5.9936 261.857 6.24624 261.857 6.55381V9.90041L261.748 10.1164C261.678 10.2519 261.568 10.3618 261.437 10.4277L261.221 10.5375H258.428C258.117 10.5375 257.868 10.7901 257.868 11.0977V12.1339C257.868 12.4451 258.12 12.6978 258.428 12.6978H261.221L261.437 12.8076C261.572 12.8772 261.682 12.987 261.748 13.1189L261.857 13.3349V16.1835C261.857 16.4948 262.11 16.7474 262.417 16.7474H263.451C263.762 16.7474 264.011 16.4948 264.011 16.1835V13.3349L264.234 13.1189C264.303 12.9834 264.413 12.8735 264.545 12.8076L264.76 12.6978H267.441C267.751 12.6978 268 12.4451 268 12.1339V11.0977C268 10.7865 267.748 10.5375 267.441 10.5375Z" fill="#7854FF"/>
<path d="M160.012 28.1527C159.606 28.1527 159.274 27.8195 159.274 27.4131V9.05806C159.274 8.65163 159.606 8.31844 160.012 8.31844H161.815C162.221 8.31844 162.553 8.65163 162.553 9.05806V9.20086C162.553 9.27409 162.583 9.34366 162.634 9.39126C162.685 9.43886 162.747 9.46448 162.817 9.46448C162.868 9.46448 162.923 9.44984 162.967 9.42055C164.224 8.58207 165.687 8.13903 167.19 8.13903C167.46 8.13903 167.738 8.15367 168.012 8.18296C171.563 8.5601 174.418 11.4051 174.806 14.9531C175.047 17.1609 174.371 19.2846 172.897 20.9323C171.442 22.558 169.362 23.488 167.19 23.488C165.687 23.488 164.228 23.045 162.967 22.2065C162.923 22.1772 162.872 22.1625 162.817 22.1625C162.67 22.1625 162.55 22.2834 162.55 22.4298V27.4131C162.55 27.8195 162.217 28.1527 161.811 28.1527H160.009H160.012ZM167.19 11.4344C166.945 11.4344 166.696 11.4563 166.451 11.4966C164.645 11.7932 163.179 13.2651 162.879 15.0702C162.667 16.3591 163.021 17.6589 163.855 18.6438C164.689 19.6288 165.906 20.1963 167.193 20.1963C167.438 20.1963 167.691 20.1743 167.939 20.1341C169.746 19.8338 171.212 18.3619 171.508 16.5568C171.72 15.2716 171.362 13.9681 170.532 12.9832C169.698 11.9982 168.48 11.4344 167.193 11.4344H167.19Z" fill="#061733"/>
<path d="M178.886 28.1527C178.477 28.1527 178.147 27.8195 178.147 27.4131V9.05806C178.147 8.65163 178.48 8.31844 178.886 8.31844H180.689C181.095 8.31844 181.427 8.65163 181.427 9.05806V9.20086C181.427 9.27409 181.457 9.34366 181.508 9.39126C181.559 9.43886 181.621 9.46448 181.691 9.46448C181.742 9.46448 181.797 9.44984 181.84 9.42055C183.098 8.58207 184.561 8.13903 186.064 8.13903C186.334 8.13903 186.612 8.15367 186.886 8.18296C190.437 8.5601 193.292 11.4051 193.68 14.9531C193.921 17.1609 193.245 19.2846 191.771 20.9323C190.316 22.558 188.235 23.488 186.064 23.488C184.561 23.488 183.102 23.045 181.84 22.2065C181.797 22.1772 181.745 22.1625 181.691 22.1625C181.544 22.1625 181.424 22.2834 181.424 22.4298V27.4131C181.424 27.8195 181.091 28.1527 180.685 28.1527H178.882H178.886ZM186.064 11.4344C185.819 11.4344 185.57 11.4563 185.325 11.4966C183.519 11.7932 182.049 13.2651 181.753 15.0702C181.541 16.3591 181.895 17.6589 182.729 18.6438C183.563 19.6288 184.78 20.1963 186.067 20.1963C186.312 20.1963 186.564 20.1743 186.813 20.1341C188.619 19.8338 190.086 18.3619 190.382 16.5568C190.594 15.2716 190.235 13.9681 189.405 12.9832C188.572 11.9982 187.354 11.4344 186.067 11.4344H186.064Z" fill="#061733"/>
<path d="M132.406 29.7091C131.825 29.7091 131.291 29.559 130.823 29.266C129.946 28.7168 129.419 27.6989 129.419 26.5456V9.17178C129.419 7.59368 130.235 6.18401 131.598 5.39312C132.268 5.00501 133.021 4.79996 133.778 4.79996C134.534 4.79996 135.288 5.00501 135.957 5.39312L149.036 12.9541C150.411 13.7486 151.23 15.1693 151.23 16.7584C151.23 18.3475 150.411 19.7681 149.036 20.5627L137.43 27.2705C137.068 27.4792 136.659 27.5927 136.246 27.5927C135.832 27.5927 135.427 27.4829 135.061 27.2705C134.319 26.8421 133.876 26.0732 133.876 25.2201L133.884 11.0867C133.884 10.5339 134.333 10.0835 134.885 10.0835C135.061 10.0835 135.229 10.1274 135.383 10.219L145.449 16.0407C145.708 16.1909 145.862 16.4581 145.862 16.7584C145.862 17.0586 145.708 17.3259 145.449 17.476L137.094 22.3055C136.878 22.43 136.648 22.5143 136.407 22.5619C136.352 22.5728 136.308 22.6204 136.308 22.679V23.7409C136.308 24.1876 136.662 24.5281 137.134 24.5391C137.233 24.5391 137.324 24.5134 137.405 24.4695L147.354 18.7173C148.326 18.1534 148.725 16.9927 148.323 15.8943C148.165 15.4659 147.851 15.0961 147.438 14.8581L135.251 7.80971C134.904 7.60832 134.513 7.50214 134.118 7.50214C133.423 7.50214 132.783 7.81703 132.308 8.38456C132.012 8.73973 131.851 9.19741 131.851 9.68073V26.1135C131.851 26.9556 132.066 28.0797 133.094 28.6509C133.474 28.8633 133.935 28.9548 134.253 28.9914C134.297 28.9951 134.333 29.0244 134.352 29.061C134.37 29.1049 134.366 29.1525 134.341 29.2075C133.675 29.5407 133.024 29.7091 132.403 29.7091H132.406ZM137.003 14.0782C136.739 14.0782 136.498 14.232 136.359 14.4846C136.33 14.5395 136.311 14.6054 136.311 14.6787V18.7466C136.311 19.1457 136.63 19.4496 137.054 19.4496H137.079C137.141 19.4496 137.207 19.4276 137.269 19.391L140.787 17.3589C140.951 17.2637 141.065 17.1136 141.112 16.9341C141.16 16.7401 141.127 16.5314 141.01 16.3446C140.977 16.2897 140.929 16.2421 140.867 16.2092L137.35 14.177C137.244 14.1148 137.123 14.0818 137.006 14.0818L137.003 14.0782Z" fill="#7854FF"/>
<path d="M208.96 28.1202C208.639 28.1202 208.361 27.9224 208.266 27.6259L206.957 23.5067C206.913 23.3712 206.785 23.2797 206.635 23.2797H199.706C199.556 23.2797 199.428 23.3712 199.384 23.5067L198.05 27.6295C197.955 27.9224 197.677 28.1202 197.359 28.1202H195.015C194.781 28.1202 194.565 28.0176 194.43 27.8346C194.291 27.6515 194.254 27.4245 194.324 27.2121L200.664 8.663C200.759 8.37374 201.037 8.17968 201.355 8.17968H204.916C205.235 8.17968 205.509 8.37374 205.608 8.663L211.948 27.2121C212.021 27.4245 211.981 27.6515 211.842 27.8346C211.703 28.0176 211.491 28.1202 211.257 28.1202H208.96ZM203.066 12.0389C202.982 12.0389 202.909 12.0902 202.887 12.167L200.393 19.9441C200.361 20.0429 200.379 20.1491 200.445 20.2296C200.51 20.3139 200.609 20.3615 200.715 20.3615H205.644C205.75 20.3615 205.849 20.3139 205.915 20.2296C205.98 20.1454 205.999 20.0429 205.966 19.9441L203.501 12.1634C203.476 12.0865 203.403 12.0352 203.322 12.0352H203.07L203.066 12.0389Z" fill="#061733"/>
<path d="M217.45 31.8C217.135 31.8 216.876 31.5436 216.876 31.2251V17.0002C216.876 16.6853 217.132 16.4253 217.45 16.4253H218.847C219.161 16.4253 219.421 16.6817 219.421 17.0002V17.1101C219.421 17.1686 219.443 17.2199 219.483 17.2602C219.523 17.2968 219.571 17.3188 219.625 17.3188C219.666 17.3188 219.706 17.3078 219.742 17.2821C220.719 16.6341 221.848 16.2899 223.015 16.2899C223.227 16.2899 223.439 16.3009 223.651 16.3228C226.401 16.6157 228.616 18.82 228.916 21.5697C229.103 23.2833 228.576 24.9273 227.435 26.2052C226.309 27.4648 224.697 28.1861 223.011 28.1861C221.848 28.1861 220.715 27.8419 219.739 27.1938C219.706 27.1718 219.666 27.1572 219.622 27.1572C219.508 27.1572 219.417 27.2487 219.417 27.3622V31.2251C219.417 31.54 219.161 31.8 218.843 31.8H217.446H217.45ZM223.011 18.8419C222.821 18.8419 222.627 18.8566 222.437 18.8895C221.037 19.1202 219.9 20.2589 219.666 21.6613C219.501 22.6609 219.775 23.6678 220.422 24.433C221.07 25.1983 222.013 25.6377 223.011 25.6377C223.201 25.6377 223.395 25.623 223.589 25.5901C224.989 25.3594 226.126 24.217 226.357 22.8147C226.521 21.8187 226.243 20.8082 225.6 20.0466C224.953 19.2813 224.009 18.8456 223.015 18.8456L223.011 18.8419Z" fill="#061733"/>
<path d="M248.204 25.993C248.204 25.6305 248.384 25.3266 248.746 25.0776C248.939 24.9531 249.14 24.8909 249.349 24.8909C249.641 24.8909 249.919 25.0227 250.179 25.2863C250.596 25.7184 251.027 26.0369 251.481 26.2456C251.93 26.4543 252.475 26.5568 253.111 26.5568C254.194 26.5166 254.731 26.1065 254.731 25.3266C254.731 24.9238 254.548 24.6199 254.179 24.4112C253.813 24.2025 253.239 23.9938 252.464 23.7851C251.66 23.5617 251.005 23.342 250.501 23.1187C249.996 22.8953 249.557 22.5585 249.192 22.1081C248.826 21.6578 248.64 21.05 248.64 20.2884C248.64 19.622 248.83 19.0435 249.21 18.5492C249.59 18.0585 250.091 17.6741 250.709 17.4031C251.327 17.1322 251.981 16.9967 252.673 16.9967C253.364 16.9967 254.088 17.1285 254.793 17.3921C255.499 17.6557 256.055 18.0439 256.457 18.5565C256.636 18.7798 256.727 19.0288 256.727 19.3071C256.727 19.6256 256.596 19.8893 256.333 20.098C256.139 20.2517 255.916 20.325 255.667 20.325C255.364 20.325 255.111 20.2298 254.918 20.0321C254.669 19.7282 254.347 19.4828 253.952 19.3034C253.557 19.124 253.111 19.0325 252.61 19.0325C251.557 19.0325 251.031 19.4133 251.031 20.1785C251.031 20.4824 251.126 20.7314 251.323 20.9181C251.517 21.1049 251.762 21.2513 252.062 21.3539C252.362 21.4564 252.779 21.5845 253.32 21.7383C254.069 21.947 254.691 22.163 255.192 22.3827C255.689 22.6061 256.113 22.9466 256.461 23.4043C256.808 23.862 256.98 24.4661 256.98 25.2167C256.98 25.8978 256.779 26.4909 256.376 26.9962C255.974 27.5015 255.459 27.8896 254.826 28.1532C254.197 28.4169 253.546 28.5487 252.881 28.5487C251.967 28.5487 251.115 28.3949 250.325 28.091C249.535 27.7871 248.892 27.2928 248.391 26.6118C248.267 26.447 248.204 26.2383 248.204 25.9856V25.993Z" fill="#061733"/>
<path d="M233.461 12.9545H232.068C231.751 12.9545 231.494 13.2118 231.494 13.5293V27.7542C231.494 28.0717 231.751 28.3291 232.068 28.3291H233.461C233.778 28.3291 234.035 28.0717 234.035 27.7542V13.5293C234.035 13.2118 233.778 12.9545 233.461 12.9545Z" fill="#061733"/>
<path d="M246.077 20.9506V23.6821C246.074 25.1686 245.66 26.3366 244.838 27.1788C244.011 28.0246 242.838 28.4493 241.313 28.4493C239.788 28.4493 238.618 28.0246 237.799 27.1788C236.98 26.333 236.574 25.1613 236.574 23.6601V18.6915C236.574 18.6731 236.578 18.6548 236.578 18.6402V17.9994C236.578 17.6882 236.83 17.4356 237.141 17.4356H238.509C238.819 17.4356 239.072 17.6882 239.072 17.9994V23.6601C239.072 24.5059 239.255 25.132 239.631 25.5421C240.008 25.9522 240.571 26.1572 241.317 26.1572C242.063 26.1572 242.648 25.9522 243.021 25.5421C243.394 25.132 243.584 24.5059 243.584 23.6601V23.034C243.584 23.034 243.587 23.0303 243.587 23.0267V21.7817C243.748 21.8293 243.916 21.866 244.099 21.866H244.147C244.381 21.8586 244.622 21.7927 244.834 21.6682L246.081 20.9469L246.077 20.9506Z" fill="#061733"/>
<path d="M246.87 18.9623C246.837 19.0832 246.76 19.1894 246.651 19.2553L246.077 19.5848L244.241 20.6466C244.197 20.6686 244.153 20.6869 244.113 20.6869H244.099C243.806 20.6869 243.587 20.4782 243.587 20.2072V17.4208C243.587 17.3696 243.598 17.3257 243.62 17.2854C243.715 17.1133 243.879 17.0071 244.058 17.0071C244.142 17.0071 244.223 17.0291 244.3 17.0693L244.929 17.4355L246.08 18.1019L246.709 18.4644C246.753 18.4937 246.782 18.523 246.808 18.5596C246.888 18.6877 246.91 18.8305 246.874 18.966L246.87 18.9623Z" fill="#7854FF"/>
<path d="M246.804 18.5596C246.782 18.523 246.749 18.4937 246.705 18.4644L246.076 18.1019L244.924 17.4355L244.296 17.0693C244.222 17.0291 244.138 17.0071 244.054 17.0071C243.875 17.0071 243.707 17.1133 243.615 17.2854C243.597 17.3257 243.583 17.3696 243.583 17.4208V20.2072C243.583 20.4782 243.802 20.6869 244.094 20.6869H244.109C244.153 20.6869 244.197 20.6723 244.237 20.6466L246.073 19.5848L246.647 19.2553C246.756 19.193 246.837 19.0868 246.866 18.9623C246.903 18.8269 246.877 18.6877 246.8 18.5559L246.804 18.5596Z" fill="#F4AA10"/>
</svg>
